<?xml version="1.0" encoding="UTF-8"?>
<svg width="1e3" height="350" version="1.1" viewBox="0 0 264.58 92.604" xmlns="http://www.w3.org/2000/svg" xmlns:cc="http://creativecommons.org/ns#" xmlns:dc="http://purl.org/dc/elements/1.1/" xmlns:rdf="http://www.w3.org/1999/02/22-rdf-syntax-ns#">
<metadata>
<rdf:RDF>
<cc:Work rdf:about="">
<dc:format>image/svg+xml</dc:format>
<dc:type rdf:resource="http://purl.org/dc/dcmitype/StillImage"/>
<dc:title/>
</cc:Work>
</rdf:RDF>
</metadata>
<g transform="translate(16.253 -216.12)" fill="#e6e6e6">
<path d="m67.733 263.13a33.867 33.867 0 0 1-33.867 33.867 33.867 33.867 0 0 1-33.867-33.867 33.867 33.867 0 0 1 33.867-33.867 33.867 33.867 0 0 1 33.867 33.867"/>
<path d="m228.07 263.13a33.867 33.867 0 0 1-33.867 33.867 33.867 33.867 0 0 1-33.867-33.867 33.867 33.867 0 0 1 33.867-33.867 33.867 33.867 0 0 1 33.867 33.867"/>
<path d="m33.867 229.27h158.75v67.733h-158.75z"/>
</g>
<g transform="matrix(.0070891 0 0 -.0072194 19.815 78.41)" fill="#5c2d91">
<path d="m9408 9513c-8-10-50-81-93-158-568-1017-1184-1528-2219-1840-245-74-256-67-155 100 228 380 385 834 444 1288 17 135 12 157-36 157-25 0-49-19-144-114-509-509-1176-844-1870-940-60-8-128-18-150-21s-438-10-925-14c-920-9-928-9-1200-56-314-53-710-185-1004-332-966-484-1686-1389-1950-2448-32-129-60-278-83-435-22-158-26-763-5-930 109-883 448-1614 1022-2204 588-603 1352-969 2235-1071 197-22 589-30 835-16 1288 73 2297 453 3189 1201 168 141 471 437 471 461 0 32-27 22-158-60-550-340-1167-602-1807-766-936-239-1998-278-2725-100-472 116-885 318-1261 616-133 106-372 344-479 479-485 611-724 1388-660 2145 118 1372 1105 2498 2442 2784 637 136 1300 65 1902-205 220-99 451-240 648-395 132-104 413-386 508-509 419-543 645-1176 676-1891 9-226-15-405-81-606-68-203-167-366-309-509-234-235-513-339-839-313-269 22-491 113-665 274-66 61-154 167-164 197-3 7-40-24-87-74-297-313-715-484-1141-465-945 42-1629 952-1404 1867 107 435 408 808 809 1005 138 67 206 92 350 127 86 21 115 22 670 25 635 5 651 4 772-52 168-77 290-215 349-395 16-50 19-114 24-720 6-641 7-668 28-743 68-246 224-387 462-416 296-37 506 127 597 466 24 90 26 114 27 298 0 405-82 748-269 1113-322 634-915 1111-1592 1281-535 135-1080 95-1580-115-780-326-1339-1035-1483-1880-103-600 20-1175 360-1687 417-628 1102-1051 1880-1163 152-21 789-31 1027-15 778 52 1495 245 2183 587 608 303 1078 641 1560 1124 478 477 814 943 1104 1530 299 605 471 1209 538 1890 21 213 18 925-5 1110-65 533-184 953-388 1370-39 80-78 153-86 163-9 9-30 17-48 17s-38-8-47-17z"/>
<path d="m3402 5145c-263-68-483-252-597-499-125-269-107-599 46-860 53-91 220-257 309-309 246-142 549-167 808-67 124 48 210 105 312 209 99 101 157 186 203 302 60 150 60 152 64 697 4 448 3 506-12 528l-15 24h-513c-507-1-513-1-605-25z"/>
</g>
<g stroke-width=".26458" aria-label="POWERED BY">
<path d="m131.36 22.544v2.9713h-0.51158v-7.4102h1.788q1.142 0 1.7466 0.53225 0.60459 0.52708 0.60459 1.5451 0 1.0335-0.67694 1.7001-0.67177 0.66144-1.8861 0.66144zm0-3.9686v3.4984h1.0542q1.0025 0 1.5244-0.47541 0.52192-0.48058 0.52192-1.3539 0-1.6691-1.9171-1.6691z"/>
<path d="m139.67 25.645q-1.5709 0-2.5062-1.0438-0.93014-1.0438-0.93014-2.7129 0-1.7724 0.95598-2.8369 0.96115-1.0697 2.6199-1.0697 1.4986 0 2.4236 1.0283 0.93015 1.0232 0.93015 2.6871 0 1.8396-0.95082 2.8938-0.95081 1.0542-2.5424 1.0542zm0.0517-7.1983q-1.2919 0-2.129 0.93531-0.83196 0.93531-0.83196 2.4494 0 1.5296 0.79062 2.4391 0.79063 0.90431 2.1083 0.90431 1.3746 0 2.1755-0.89397 0.80096-0.89914 0.80096-2.5011 0-1.5709-0.78546-2.4494-0.78029-0.88364-2.129-0.88364z"/>
<path d="m150.77 25.515h-0.42373l-1.6484-5.5757q-0.12402-0.4289-0.13952-0.69761h-0.0207q-0.0155 0.22737-0.16019 0.68728l-1.757 5.586h-0.42373l-2.2014-7.4102h0.57359l1.6898 5.9374q0.11368 0.40306 0.16019 0.65627h0.0207q0.031-0.1912 0.18086-0.65627l1.8293-5.9374h0.25838l1.6794 5.9374q0.11885 0.4134 0.16019 0.65627h0.0207q0.0258-0.14469 0.0827-0.33072l1.7363-6.263h0.55292z"/>
<path d="m154.15 25.515v-7.4102h3.4622v0.47024h-2.9506v2.9713h2.7388v0.46507h-2.7388v3.0385h3.1212v0.46507z"/>
<path d="m163.23 25.515-0.98699-2.1703q-0.30488-0.67177-0.60976-0.89914-0.30488-0.23254-0.76479-0.23254h-0.91981v3.302h-0.51158v-7.4102h2.0567q0.98182 0 1.5399 0.53225 0.56325 0.52708 0.56325 1.3952 0 0.80096-0.4599 1.3384-0.45991 0.53742-1.2867 0.69244v0.02067q0.43923 0.17569 0.8578 1.0697l1.1007 2.3615zm-3.2814-6.9399v3.1728h1.2764q0.84747 0 1.3436-0.4444 0.50124-0.4444 0.50124-1.2195 0-0.70794-0.44957-1.1058-0.44957-0.40306-1.2867-0.40306z"/>
<path d="m165.31 25.515v-7.4102h3.4622v0.47024h-2.9506v2.9713h2.7388v0.46507h-2.7388v3.0385h3.1212v0.46507z"/>
<path d="m170.6 25.515v-7.4102h1.8551q1.8448 0 2.8059 0.91981t0.96115 2.6819q0 1.6949-1.0335 2.7543-1.0283 1.0542-2.8421 1.0542zm0.51158-6.9399v6.4749h1.1627q1.6484 0 2.5321-0.85263 0.88364-0.8578 0.88364-2.4701 0-3.1522-3.3124-3.1522z"/>
<path d="m180.63 25.515v-7.4102h1.9481q0.87331 0 1.3901 0.47024 0.51674 0.47024 0.51674 1.2454 0 0.64594-0.34622 1.1213-0.34105 0.47024-0.95598 0.6666v0.02067q0.76995 0.07235 1.2144 0.55292 0.4444 0.47541 0.4444 1.2144 0 0.93531-0.60459 1.5296-0.6046 0.58909-1.6174 0.58909zm0.51159-6.9399v2.868h1.0335q0.80613 0 1.2919-0.4134 0.48574-0.4134 0.48574-1.1213 0-1.3332-1.5761-1.3332zm0 3.333v3.1418h1.3745q0.87331 0 1.3332-0.41857 0.46508-0.41856 0.46508-1.1885 0-1.5347-2.0825-1.5347z"/>
<path d="m188.02 22.699v2.8163h-0.50641v-2.8059l-2.2685-4.6042h0.57359l1.7259 3.5707q0.093 0.18603 0.23254 0.54775h0.0207q0.0723-0.1912 0.25321-0.53742l1.8086-3.5811h0.55293z"/>
</g>
<g stroke-width=".26458" aria-label="Blazor">
<path d="m104.91 61.864v-29.641h8.4335q3.8447 0 6.0978 1.881 2.2531 1.881 2.2531 4.8989 0 2.5218-1.3642 4.3821-1.3642 1.8603-3.762 2.6458v0.08268q2.9972 0.3514 4.7955 2.2737 1.7983 1.9017 1.7983 4.9609 0 3.8034-2.7285 6.1598-2.7285 2.3564-6.8832 2.3564zm3.4726-26.499v9.5704h3.5553q2.8525 0 4.4855-1.3642 1.633-1.3849 1.633-3.886 0-4.3201-5.6844-4.3201zm0 12.692v10.666h4.7128q3.0592 0 4.7335-1.4469 1.695-1.4469 1.695-3.9687 0-5.2503-7.152-5.2503z"/>
<path d="m132.16 61.864h-3.39v-31.336h3.39z"/>
<path d="m154.17 61.864h-3.39v-3.3073h-0.0827q-2.2117 3.8034-6.5112 3.8034-3.1626 0-4.9609-1.6743-1.7776-1.6743-1.7776-4.4441 0-5.9324 6.9866-6.9039l6.3458-0.88883q0-5.395-4.3614-5.395-3.824 0-6.9039 2.6045v-3.4726q3.1212-1.9844 7.1933-1.9844 7.462 0 7.462 7.8961zm-3.39-10.707-5.1056 0.70279q-2.3564 0.33073-3.5553 1.1782-1.1989 0.82682-1.1989 2.9559 0 1.5503 1.0955 2.5425 1.1162 0.97151 2.9559 0.97151 2.5218 0 4.1548-1.757 1.6536-1.7777 1.6536-4.4855z"/>
<path d="m175.36 41.669-12.526 17.301h12.402v2.8939h-17.384v-1.0542l12.526-17.218h-11.348v-2.8939h16.33z"/>
<path d="m188.63 62.36q-4.6922 0-7.5034-2.9559-2.7905-2.9765-2.7905-7.8754 0-5.333 2.9145-8.3302 2.9145-2.9972 7.8754-2.9972 4.7335 0 7.3793 2.9145 2.6665 2.9145 2.6665 8.0821 0 5.0643-2.8732 8.1235-2.8525 3.0386-7.6687 3.0386zm0.24805-19.306q-3.2659 0-5.1676 2.2324-1.9017 2.2117-1.9017 6.1184 0 3.762 1.9223 5.9324 1.9224 2.1704 5.1469 2.1704 3.2866 0 5.0436-2.1291 1.7776-2.1291 1.7776-6.0564 0-3.9687-1.7776-6.1184-1.757-2.1497-5.0436-2.1497z"/>
<path d="m215.62 44.129q-0.88883-0.68212-2.5631-0.68212-2.1704 0-3.638 2.0464-1.4469 2.0464-1.4469 5.581v10.79h-3.39v-21.166h3.39v4.3615h0.0827q0.72347-2.2324 2.2117-3.4726 1.4883-1.2609 3.3279-1.2609 1.3229 0 2.0257 0.28938z"/>
</g>
<g transform="matrix(1.4429,0,0,1.4429,-52.464,-327.11)">
<path d="m112.92 276.81h-3.8513v3.8513h3.8513z" fill="#00a4ef"/>
<path d="m117.17 276.81h-3.8513v3.8513h3.8513z" fill="#ffb900"/>
<path d="m117.17 272.56h-3.8513v3.8513h3.8513z" fill="#7fba00"/>
<path d="m112.92 272.56h-3.8513v3.8513h3.8513z" fill="#f25022"/>
</g>
<g stroke-width=".26458" aria-label="Microsoft Technology">
<path d="m127.31 75.969v-5.2605q0-0.1912 0.0568-1.0903h-0.0207q-0.16019 0.41857-0.26871 0.64594l-2.6354 5.7049h-0.16536l-2.6458-5.6739q-0.12919-0.27388-0.24287-0.69761h-0.0258q0.0362 0.49608 0.0362 0.98699v5.3845h-0.51158v-7.4102h0.47541l2.7646 5.9684q0.0258 0.05168 0.0568 0.13952 0.031 0.08785 0.0672 0.1757 0.0517 0.13435 0.10852 0.29971h0.031l0.0568-0.16536q5e-3 -0.02067 0.17569-0.49091l2.7233-5.9271h0.45474v7.4102z"/>
<path d="m129.84 69.344q-0.15503 0-0.27388-0.11368-0.11885-0.11368-0.11885-0.28938 0-0.17053 0.11885-0.27388 0.12402-0.10852 0.27388-0.10852 0.16019 0 0.27904 0.10335 0.12402 0.10335 0.12402 0.27904 0 0.16536-0.11885 0.28421t-0.28421 0.11885zm-0.23254 6.6247v-5.2915h0.47541v5.2915z"/>
<path d="m135.2 75.737q-0.58909 0.36172-1.4056 0.36172-1.08 0-1.7414-0.73895-0.66144-0.74412-0.66144-1.943 0-1.2609 0.74412-2.0618 0.74411-0.80613 1.912-0.80613 0.6046 0 1.173 0.24804v0.53742q-0.56842-0.35139-1.2454-0.35139-0.93015 0-1.5089 0.67177-0.57875 0.6666-0.57875 1.7311 0 1.0283 0.52708 1.6536 0.53225 0.62526 1.4004 0.62526 0.79579 0 1.3849-0.42373z"/>
<path d="m138.96 71.174q-0.23771-0.17053-0.55809-0.17053-0.62527 0-1.049 0.64594t-0.42373 1.8345v2.4856h-0.46508v-5.2915h0.46508v1.173h0.0207q0.18086-0.6046 0.57359-0.94048t0.90947-0.33589q0.29455 0 0.52709 0.09301z"/>
<path d="m141.88 76.098q-1.1575 0-1.8345-0.75962-0.67177-0.76479-0.67177-1.9843 0-1.3177 0.70278-2.0618 0.70794-0.74412 1.8603-0.74412 1.1317 0 1.788 0.73895t0.65627 2.0463q0 1.235-0.67178 1.9998-0.6666 0.76479-1.8293 0.76479zm0.0362-5.1158q-0.93531 0-1.4934 0.63043-0.55292 0.63043-0.55292 1.7518 0 1.0387 0.54258 1.6691 0.54259 0.63043 1.4831 0.63043 0.95598 0 1.4727-0.6201 0.51675-0.6201 0.51675-1.7208 0-1.1317-0.51675-1.7363-0.51158-0.6046-1.4521-0.6046z"/>
<path d="m145.41 75.737v-0.57359q0.26871 0.23254 0.6511 0.36689 0.3824 0.13435 0.66144 0.13435 1.2454 0 1.2454-1.018 0-0.35139-0.27388-0.59943t-0.88881-0.51158q-0.75962-0.33072-1.0697-0.68211-0.30488-0.35656-0.30488-0.86297 0-0.64594 0.49091-1.0438 0.49608-0.3979 1.2195-0.3979 0.68211 0 1.1678 0.27904v0.53742q-0.58909-0.38239-1.2195-0.38239-0.52191 0-0.8423 0.27388-0.32038 0.26871-0.32038 0.70278 0 0.37723 0.20153 0.61493 0.20153 0.23254 0.88881 0.53742 0.8268 0.37206 1.1368 0.69244 0.31005 0.31522 0.31005 0.8423 0 0.63043-0.47541 1.0438-0.47024 0.40823-1.3022 0.40823-0.76479 0-1.2764-0.36172z"/>
<path d="m151.92 76.098q-1.1575 0-1.8345-0.75962-0.67177-0.76479-0.67177-1.9843 0-1.3177 0.70278-2.0618 0.70794-0.74412 1.8603-0.74412 1.1317 0 1.788 0.73895t0.65627 2.0463q0 1.235-0.67177 1.9998-0.66661 0.76479-1.8293 0.76479zm0.0362-5.1158q-0.93531 0-1.4934 0.63043-0.55292 0.63043-0.55292 1.7518 0 1.0387 0.54258 1.6691 0.54259 0.63043 1.4831 0.63043 0.95599 0 1.4727-0.6201 0.51675-0.6201 0.51675-1.7208 0-1.1317-0.51675-1.7363-0.51158-0.6046-1.4521-0.6046z"/>
<path d="m157.76 68.636q-0.19119-0.14986-0.57875-0.14986-0.97666 0-0.97666 1.3125v0.87847h1.4004v0.43407h-1.4004v4.8574h-0.47541v-4.8574h-0.95081v-0.43407h0.95081v-0.91981q0-0.83713 0.41857-1.2712 0.42373-0.43407 1.0542-0.43407 0.33588 0 0.55808 0.09818z"/>
<path d="m160.74 75.897q-0.37206 0.17569-0.69761 0.17569-1.173 0-1.173-1.4056v-3.5552h-0.95081v-0.43407h0.95081v-1.3745q0.11369-0.04134 0.23771-0.08268 0.12402-0.03617 0.2377-0.07751v1.5347h1.3952v0.43407h-1.3952v3.4932q0 0.54775 0.17053 0.79579 0.17569 0.24287 0.58909 0.24287 0.29455 0 0.6356-0.1912z"/>
<path d="m166.8 69.029v6.9399h-0.50641v-6.9399h-2.1393v-0.47024h4.7851v0.47024z"/>
<path d="m168.56 73.344q0 1.0903 0.50124 1.7053 0.50642 0.61493 1.3849 0.61493 0.88881 0 1.7363-0.65627v0.50641q-0.82163 0.58393-1.8344 0.58393-1.0232 0-1.6536-0.73378-0.63043-0.73378-0.63043-2.0722 0-1.1575 0.65627-1.9481 0.66144-0.79579 1.7156-0.79579 0.98699 0 1.5141 0.69244 0.52708 0.69244 0.52708 1.8913v0.21187zm3.4209-0.43407q-0.031-0.91464-0.43924-1.4211-0.40823-0.50641-1.1265-0.50641-0.74411 0-1.235 0.50124-0.48575 0.49608-0.59943 1.4262z"/>
<path d="m177.22 75.737q-0.58909 0.36172-1.4056 0.36172-1.08 0-1.7414-0.73895-0.66144-0.74412-0.66144-1.943 0-1.2609 0.74412-2.0618 0.74411-0.80613 1.912-0.80613 0.6046 0 1.173 0.24804v0.53742q-0.56842-0.35139-1.2454-0.35139-0.93015 0-1.5089 0.67177-0.57875 0.6666-0.57875 1.7311 0 1.0283 0.52708 1.6536 0.53225 0.62526 1.4004 0.62526 0.79579 0 1.3849-0.42373z"/>
<path d="m182.09 75.969v-3.1728q0-0.94048-0.34105-1.3745-0.34106-0.43924-1.0645-0.43924-0.68211 0-1.1989 0.53225-0.51675 0.53225-0.51675 1.5244v2.93h-0.4754v-7.8339h0.4754v3.4932h0.0207q0.62527-1.08 1.819-1.08 0.8578 0 1.3074 0.55292 0.44957 0.55292 0.44957 1.5864v3.2814z"/>
<path d="m187.75 75.969v-3.0798q0-1.9068-1.3746-1.9068-0.76479 0-1.2557 0.56326-0.49091 0.55809-0.49091 1.3849v3.0385h-0.47541v-5.2915h0.47541v0.96115h0.0207q0.57876-1.0903 1.8086-1.0903 0.8578 0 1.3125 0.57359 0.45474 0.56842 0.45474 1.6278v3.2193z"/>
<path d="m191.94 76.098q-1.1575 0-1.8344-0.75962-0.67177-0.76479-0.67177-1.9843 0-1.3177 0.70277-2.0618 0.70795-0.74412 1.8603-0.74412 1.1317 0 1.788 0.73895t0.65627 2.0463q0 1.235-0.67178 1.9998-0.6666 0.76479-1.8293 0.76479zm0.0362-5.1158q-0.93532 0-1.4934 0.63043-0.55293 0.63043-0.55293 1.7518 0 1.0387 0.54259 1.6691 0.54259 0.63043 1.4831 0.63043 0.95598 0 1.4727-0.6201 0.51675-0.6201 0.51675-1.7208 0-1.1317-0.51675-1.7363-0.51158-0.6046-1.4521-0.6046z"/>
<path d="m195.75 75.969v-7.8339h0.47541v7.8339z"/>
<path d="m200.04 76.098q-1.1575 0-1.8345-0.75962-0.67177-0.76479-0.67177-1.9843 0-1.3177 0.70278-2.0618 0.70794-0.74412 1.8603-0.74412 1.1317 0 1.788 0.73895t0.65627 2.0463q0 1.235-0.67177 1.9998-0.66661 0.76479-1.8293 0.76479zm0.0362-5.1158q-0.93531 0-1.4934 0.63043-0.55292 0.63043-0.55292 1.7518 0 1.0387 0.54259 1.6691 0.54258 0.63043 1.4831 0.63043 0.95599 0 1.4727-0.6201 0.51675-0.6201 0.51675-1.7208 0-1.1317-0.51675-1.7363-0.51158-0.6046-1.4521-0.6046z"/>
<path d="m208.08 75.576q0 1.4934-0.6511 2.1858-0.65111 0.69244-2.0257 0.69244-0.76478 0-1.5761-0.40306v-0.49608q0.83713 0.46507 1.5864 0.46507 2.191 0 2.191-2.315v-0.68728h-0.0207q-0.62527 1.08-1.9068 1.08-0.97665 0-1.5968-0.70794-0.61493-0.70794-0.61493-1.974t0.6666-2.067q0.66661-0.80096 1.757-0.80096 1.1678 0 1.6949 0.96632h0.0207v-0.83713h0.47541zm-0.47541-2.868q0-0.70278-0.47541-1.2144-0.47024-0.51158-1.2299-0.51158-0.8733 0-1.4056 0.65627t-0.53225 1.7363q0 1.0852 0.48574 1.6898 0.49091 0.59943 1.2919 0.59943 0.85263 0 1.359-0.55292 0.50641-0.55292 0.50641-1.3539z"/>
<path d="m211.08 77.049q-0.28938 0.71311-0.64077 1.0593-0.35139 0.34622-0.90431 0.34622-0.23254 0-0.4134-0.07234v-0.47541q0.18603 0.07234 0.43407 0.07234 0.6356 0 1.0025-0.87847l0.49091-1.173-2.005-5.2502h0.53225l1.5968 4.3097q0.0517 0.13952 0.0724 0.21187 0.0207 0.09818 0.0465 0.17569h0.0207l0.12402-0.35656 1.7053-4.3407h0.51675z"/>
</g>
</svg>
