<svg width="512" height="512" xmlns="http://www.w3.org/2000/svg">

 <g>
  <title>background</title>
  <rect fill="none" id="canvas_background" height="402" width="582" y="-1" x="-1"/>
 </g>
 <g>
  <title>Layer 1</title>
  <path id="svg_3" fill="#aa56ff" d="m356.392,413.688c-21.176,13.527 -44.648,22.527 -68.988,26.661c3.705,-4.633 7.255,-9.364 10.655,-14.182c1.41,-1.998 1.13,-4.734 -0.689,-6.367c-4.138,-3.713 -6.556,-7.746 -9.065,-12.713c-1.657,-3.279 -6.239,-3.585 -8.291,-0.537c-3.482,5.173 -7.15,10.241 -11.014,15.186l0,-46.393c0,-3.04 -0.681,-6.042 -1.993,-8.785l-15.554,-32.52c-2.042,-4.269 -8.453,-2.814 -8.453,1.917l0,8.769l-41.968,0c-8.386,-24.162 -13.333,-49.602 -14.564,-75.725l28.944,0c1.818,0 3.082,-1.796 2.477,-3.51c-2.227,-6.305 -2.572,-12.99 -1.147,-19.304c0.369,-1.637 -0.892,-3.187 -2.57,-3.187l-27.703,0c1.231,-26.123 6.178,-51.563 14.564,-75.725l41.967,0l0,47.147c0,2.705 2.329,4.806 5.023,4.563c5.217,-0.471 9.974,0.315 14.814,2.108c2.989,1.107 6.163,-1.118 6.163,-4.305l0,-49.513l41.968,0c8.386,24.162 13.333,49.602 14.564,75.725l-5.776,0c-3.529,0 -4.684,4.737 -1.55,6.361l30.564,15.841c4.816,2.496 10.16,3.799 15.584,3.799l78.187,0c-1.721,24.939 -8.359,48.542 -18.94,69.859c-2.761,7.286 -6.454,11.048 -12.523,16.811c-2.506,2.379 -2.561,6.36 -0.118,8.803l11.868,11.868c2.711,2.711 7.241,2.322 9.398,-0.847c23.997,-35.267 36.774,-76.649 36.774,-119.493c0,-117.453 -95.586,-212.996 -212.993,-213c-0.005,0 -0.009,0 -0.014,0c-117.478,0.004 -212.993,95.62 -212.993,213c0,117.584 95.719,213 213,213c43.441,0 83.88,-13.079 117.6,-35.497c2.295,-1.526 2.623,-4.771 0.674,-6.72l-12.487,-12.487c-1.436,-1.437 -3.683,-1.701 -5.395,-0.608zm64.183,-246.413c12.35,22.817 20.085,48.478 21.965,75.725l-90.993,0c-1.117,-26.012 -5.586,-51.417 -13.193,-75.725l82.221,0zm-17.006,-26l-74.719,0c-10.45,-24.849 -24.351,-48.251 -41.446,-69.624c46.972,7.977 88.034,33.522 116.165,69.624zm-134.569,-51.011c12.422,15.898 22.92,33 31.39,51.011l-31.39,0l0,-51.011zm-26,51.011l-31.39,0c8.47,-18.012 18.968,-35.113 31.39,-51.011l0,51.011zm-18.405,-69.624c-17.095,21.374 -30.995,44.776 -41.445,69.624l-74.718,0c28.13,-36.102 69.192,-61.647 116.163,-69.624zm-133.17,95.624l82.22,0c-7.607,24.308 -12.075,49.713 -13.193,75.725l-90.993,0c1.881,-27.247 9.615,-52.908 21.966,-75.725zm0,177.45c-12.351,-22.817 -20.085,-48.478 -21.966,-75.725l90.993,0c1.117,26.012 5.586,51.417 13.193,75.725l-82.22,0zm17.006,26l74.718,0c10.45,24.849 24.351,48.251 41.446,69.624c-46.971,-7.977 -88.033,-33.522 -116.164,-69.624zm134.569,51.011c-12.422,-15.898 -22.92,-33 -31.39,-51.011l31.39,0l0,51.011z"/>
  <path id="svg_4" fill="#7f00ff" d="m433.716,436.728c5.858,-5.858 5.858,-15.355 0,-21.213l-55.76,-55.76l23.349,-22.496c3.48,-3.353 5.132,-8.177 4.437,-12.959c-0.695,-4.782 -3.651,-8.937 -7.942,-11.16l-140,-72.56c-5.768,-2.991 -12.805,-1.926 -17.432,2.634c-4.627,4.56 -5.792,11.581 -2.887,17.391l70.001,140c2.134,4.269 6.172,7.267 10.876,8.075c0.847,0.146 1.696,0.217 2.541,0.217c3.848,0 7.588,-1.482 10.407,-4.198l25.043,-24.127l56.155,56.155c2.929,2.929 6.768,4.394 10.606,4.394s7.677,-1.464 10.606,-4.393zm-108.528,-67.792l-40.251,-80.502l80.502,41.723l-40.251,38.779z"/>
 </g>
</svg>