<?xml version="1.0" encoding="UTF-8"?>
<svg width="1200" height="200" version="1.1" viewBox="0 0 317.5 52.917" xmlns="http://www.w3.org/2000/svg" xmlns:cc="http://creativecommons.org/ns#" xmlns:dc="http://purl.org/dc/elements/1.1/" xmlns:rdf="http://www.w3.org/1999/02/22-rdf-syntax-ns#">
<defs>
<linearGradient id="c" x1="15.088" x2="311.27" y1="269.99" y2="269.99" gradientTransform="matrix(.98584 0 0 .98584 5.7995 3.3555)" gradientUnits="userSpaceOnUse">
<stop stop-color="#8969ca" offset="0"/>
<stop stop-color="#a494cc" offset=".16744"/>
<stop stop-color="#35ecd3" offset="1"/>
</linearGradient>
<linearGradient id="d" x1="14.427" x2="311.93" y1="269.99" y2="269.99" gradientTransform="matrix(.98584 0 0 .98584 5.7995 3.3555)" gradientUnits="userSpaceOnUse">
<stop stop-color="#7d79cb" offset="0"/>
<stop stop-color="#35ecd3" offset="1"/>
</linearGradient>
</defs>
<metadata>
<rdf:RDF>
<cc:Work rdf:about="">
<dc:format>image/svg+xml</dc:format>
<dc:type rdf:resource="http://purl.org/dc/dcmitype/StillImage"/>
<dc:title/>
</cc:Work>
</rdf:RDF>
</metadata>
<g transform="translate(0 -244.08)">
<g transform="scale(.99137 1.0087)" fill="url(#c)" stroke="url(#d)" stroke-width="1.3042" style="mix-blend-mode:normal" aria-label="KOD by Mohammad™">
<path d="m27.435 268.07 7.2616 10.166h-14.022v-17.428h14.022zm-0.65104 0.65104-5.1833 5.1833v3.4054h11.318z"/>
<path d="m37.587 267.59q0-1.9531 0.97656-3.6308t2.6292-2.6542q1.6777-0.97656 3.6558-0.97656t3.6308 0.97656q1.6777 0.97656 2.6542 2.6542t0.97656 3.6308v3.8562q0 1.9531-0.97656 3.6308t-2.6542 2.6542q-1.6526 0.97656-3.6308 0.97656t-3.6558-0.97656q-1.6526-0.97656-2.6292-2.6542t-0.97656-3.6308zm4.5573 3.8562q0 1.2019 0.7512 2.0533t1.9531 0.85136q1.1769 0 1.9281-0.85136t0.7512-2.0533v-3.8812q0-1.227-0.7512-2.0533t-1.9281-0.82632q-1.2019 0-1.9531 0.82632t-0.7512 2.0533z"/>
<path d="m56.253 278.23v-17.428h6.4854q1.903 0 3.5056 0.95152 1.6276 0.95152 2.5791 2.5791 0.95152 1.6026 0.95152 3.5056v3.3554q0 1.903-0.95152 3.5306-0.95152 1.6026-2.5791 2.5541-1.6026 0.95152-3.5056 0.95152z"/>
<path d="m101.35 261.31q1.1769 0.60096 1.8029 1.6526 0.65104 1.0517 0.65104 2.3538 0 1.227-0.65104 2.2786-0.626 1.0266-1.7528 1.6276 1.3271 0.45072 2.2035 1.6526t0.8764 2.6542q0 1.3021-0.65104 2.4038t-1.7278 1.7027q-0.55088 0.30048-1.227 0.45072t-1.8029 0.15024h-7.3117v-17.428h6.9611q1.6526 0 2.6292 0.5008zm-0.40064 7.1865q0.90144-0.45072 1.4273-1.3021t0.52584-1.878q0-1.1518-0.60096-2.0032-0.60096-0.8764-1.5274-1.277-0.70112-0.30048-2.3538-0.30048h-5.7592v7.1614h6.2099q1.3021 0 2.0783-0.40064zm0.60096 8.4385q0.92648-0.47576 1.4774-1.3772 0.55088-0.92648 0.55088-2.0032 0-1.1268-0.57592-2.0282-0.57592-0.92648-1.5525-1.3772-0.7512-0.35056-2.0282-0.35056h-6.7608v7.537h6.4353q0.95152 0 1.5024-0.10016t0.95152-0.30048z"/>
<path d="m109.35 260.8 6.1849 9.3149 6.1348-9.3149h1.1018l-6.7858 10.291v7.1364h-0.92648v-7.1364l-6.8109-10.291z"/>
<path d="m143.8 260.78h1.0016l6.0847 10.767 6.0597-10.767h0.92648v17.428h-14.072zm0.92648 16.526h12.22v-14.648l-5.634 9.9158h-0.8764l-5.7091-10.066z"/>
<path d="m168.5 260.43q1.9531 0 3.6058 0.97656 1.6526 0.95152 2.6042 2.6042 0.97656 1.6526 0.97656 3.6058v3.8061q0 1.9531-0.97656 3.6058-0.95152 1.6526-2.6042 2.6292-1.6526 0.95152-3.6058 0.95152t-3.6058-0.95152q-1.6526-0.97656-2.6292-2.6292-0.95152-1.6526-0.95152-3.6058v-3.8061q0-1.9531 0.95152-3.6058 0.97656-1.6526 2.6292-2.6042 1.6526-0.97656 3.6058-0.97656zm-6.26 10.993q0 1.7027 0.82632 3.155 0.85136 1.4273 2.2786 2.2786 1.4523 0.82632 3.155 0.82632t3.13-0.82632q1.4523-0.85136 2.2786-2.2786 0.85136-1.4523 0.85136-3.155v-3.8061q0-1.7027-0.85136-3.13-0.82632-1.4523-2.2786-2.2786-1.4273-0.85136-3.13-0.85136t-3.155 0.85136q-1.4273 0.82632-2.2786 2.2786-0.82632 1.4273-0.82632 3.13z"/>
<path d="m179.45 278.23v-17.428h0.92648v8.2382h11.568v-8.2382h0.92648v17.428h-0.92648v-8.2632h-11.568v8.2632z"/>
<path d="m203.35 260.8h0.97656l7.1614 17.428h-1.0016l-2.3538-5.7592h-8.5887l-2.3788 5.7592h-0.97656zm-3.4305 10.767h7.8375l-3.9313-9.5653z"/>
<path d="m215.38 278.23h-0.92648v-17.428h1.0016l6.0847 10.742 6.0597-10.742h0.92648v17.428h-0.92648v-15.575l-5.634 9.9409h-0.8764l-5.7091-10.066z"/>
<path d="m233.05 278.23h-0.92648v-17.428h1.0016l6.0847 10.742 6.0597-10.742h0.92648v17.428h-0.92648v-15.575l-5.634 9.9409h-0.8764l-5.7091-10.066z"/>
<path d="m256.34 260.8h0.97656l7.1614 17.428h-1.0016l-2.3538-5.7592h-8.5887l-2.3788 5.7592h-0.97656zm-3.4305 10.767h7.8375l-3.9313-9.5653z"/>
<path d="m274.31 260.8q1.903 0 3.5056 0.95152 1.6276 0.95152 2.5791 2.5791 0.95152 1.6026 0.95152 3.5056v3.3554q0 1.903-0.95152 3.5306-0.95152 1.6026-2.5791 2.5541-1.6026 0.95152-3.5056 0.95152h-6.4353v-17.428zm6.1098 7.0362q0-1.6526-0.82632-3.0549t-2.2536-2.2286q-1.4022-0.82632-3.0549-0.82632h-5.4838v15.575h5.4838q1.6526 0 3.0549-0.82632 1.4273-0.82632 2.2536-2.2286t0.82632-3.0549z"/>
<path d="m284.66 260.8h6.6356v0.90144h-2.8546v7.3367h-0.92648v-7.3367h-2.8546zm14.924 0v8.2382h-0.92648v-6.4353l-2.1785 4.0064h-0.40064l-2.2286-4.0815v6.5104h-0.90144v-8.2382h0.90144l2.4289 4.4571 2.3788-4.4571z"/>
</g>
</g>
</svg>
